#!OML:ASF H:\Terrain\Walking\May29\JustinRory\Justin.ASF
:FULLY-SPECIFIED
:DEGREES
2066
root 10.9057 15.4527 14.2752 -264.669 -73.874 273.137 
lowerback 22.428 0.407347 -1.00315 
upperback 8.78444 -0.231721 3.23998 
thorax -2.89749 -0.495893 4.12859 
lowerneck -7.77923 -10.9552 -17.1491 
upperneck 25.9947 -17.1439 14.1445 
head 12.6982 -8.2086 5.64675 
rclavicle 1.98785e-14 4.77083e-15 
rhumerus -37.0553 -47.239 -9.48937 
rradius 31.5843 
rwrist -64.1704 
rhand -3.95773 -4.6025 
rfingers 7.12502 
rthumb 21.7946 -33.3953 
lclavicle 1.98785e-14 4.77083e-15 
lhumerus -40.3289 32.2394 38.2083 
lradius 33.0859 
lwrist -5.34839 
lhand -11.5387 33.0421 
lfingers 7.12502 
lthumb 14.5015 62.5154 
rfemur -17.0037 -7.85483 9.43031 
rtibia 36.5837 
rfoot -19.4419 0.562485 
rtoes -39.5581 
lfemur -47.2157 19.5623 7.9644 
ltibia 84.8444 
lfoot -24.37 -10.5309 
ltoes -20.5649 
2067
root 10.8791 15.4533 14.313 -265.764 -74.0166 274.138 
lowerback 22.3089 0.414004 -1.3724 
upperback 8.76586 -0.291036 3.17259 
thorax -2.85203 -0.526539 4.27983 
lowerneck -7.86447 -10.8533 -16.8567 
upperneck 26.0311 -17.0433 14.1389 
head 12.6775 -8.13733 5.61451 
rclavicle -5.56597e-14 -5.88403e-14 
rhumerus -37.4083 -47.0381 -9.51327 
rradius 31.7546 
rwrist -64.6331 
rhand -5.13011 -4.95087 
rfingers 7.12502 
rthumb 20.6684 -33.8704 
lclavicle -5.56597e-14 -5.88403e-14 
lhumerus -40.1266 32.118 38.1422 
lradius 33.2639 
lwrist -5.09581 
lhand -11.3751 32.6137 
lfingers 7.12502 
lthumb 14.6592 62.0755 
rfemur -16.4703 -8.41246 9.15381 
rtibia 36.1514 
rfoot -19.3578 0.54994 
rtoes -40.3581 
lfemur -47.3106 19.5057 7.60742 
ltibia 84.988 
lfoot -24.482 -10.6386 
ltoes -20.2528 
2068
root 10.8514 15.4496 14.3582 -267.502 -73.9292 275.61 
lowerback 22.4668 0.381131 -1.3702 
upperback 8.7324 -0.330268 3.11877 
thorax -2.96451 -0.540813 4.23375 
lowerneck -7.81064 -10.8479 -16.1991 
upperneck 26.0608 -17.0386 13.7212 
head 12.5589 -8.11632 5.34872 
rclavicle -3.18055e-14 1.59028e-15 
rhumerus -38.062 -46.4235 -9.48684 
rradius 32.2214 
rwrist -65.4742 
rhand -3.12152 -4.93279 
rfingers 7.12502 
rthumb 22.5973 -33.6301 
lclavicle -3.18055e-14 1.59028e-15 
lhumerus -39.7827 31.6795 38.2279 
lradius 33.5302 
lwrist -4.75992 
lhand -11.3796 32.7588 
lfingers 7.12502 
lthumb 14.6547 62.2209 
rfemur -15.6033 -8.90898 9.00612 
rtibia 35.6074 
rfoot -19.1854 0.692929 
rtoes -40.316 
lfemur -47.3401 19.361 7.47008 
ltibia 85.1325 
lfoot -24.8554 -10.7271 
ltoes -21.5382 
2069
root 10.8287 15.4411 14.4107 -268.784 -73.3171 276.76 
lowerback 22.5842 0.24675 -0.821908 
upperback 8.64578 -0.381178 3.15675 
thorax -3.11661 -0.551783 3.97597 
lowerneck -7.95013 -10.7938 -15.8449 
upperneck 26.2998 -16.9907 13.5186 
head 12.6144 -8.07736 5.22059 
rclavicle 7.95139e-16 3.18055e-15 
rhumerus -38.9574 -46.537 -8.87311 
rradius 31.927 
rwrist -64.4866 
rhand -3.61946 -4.45707 
rfingers 7.12502 
rthumb 22.1193 -33.2118 
lclavicle 7.95139e-16 3.18055e-15 
lhumerus -39.6025 31.4981 38.0996 
lradius 33.7892 
lwrist -4.70018 
lhand -11.2851 32.7949 
lfingers 7.12502 
lthumb 14.7458 62.2504 
rfemur -14.8874 -8.91865 9.44393 
rtibia 34.9647 
rfoot -18.8056 0.450459 
rtoes -39.379 
lfemur -47.5509 19.4057 7.8485 
ltibia 85.2776 
lfoot -24.8843 -11.1274 
ltoes -22.5995 
2070
root 10.8091 15.4403 14.46 -269.331 -73.1616 277.501 
lowerback 22.3125 0.260804 -0.869052 
upperback 8.52583 -0.352488 3.13258 
thorax -3.11354 -0.52766 3.96506 
lowerneck -8.32621 -10.763 -15.6264 
upperneck 26.72 -17.0096 13.484 
head 12.8405 -8.053 5.15927 
rclavicle 8.74653e-15 -1.43125e-14 
rhumerus -40.0033 -47.0491 -7.86359 
rradius 31.586 
rwrist -63.9382 
rhand -2.8941 -4.52959 
rfingers 7.12502 
rthumb 22.8156 -33.2002 
lclavicle 8.74653e-15 -1.43125e-14 
lhumerus -39.3556 31.3205 38.1306 
lradius 34.0373 
lwrist -4.75585 
lhand -11.2229 32.5476 
lfingers 7.12502 
lthumb 14.8058 61.9987 
rfemur -14.5602 -8.79715 9.47051 
rtibia 34.244 
rfoot -18.4732 0.149186 
rtoes -38.5607 
lfemur -48.059 19.5888 7.60421 
ltibia 85.3742 
lfoot -24.6914 -11.6018 
ltoes -22.3426 
2071
root 10.7897 15.4398 14.5029 -269.541 -73.1602 278.022 
lowerback 21.8358 0.383832 -1.19055 
upperback 8.42353 -0.236485 3.08834 
thorax -2.99333 -0.464785 4.06462 
lowerneck -8.56168 -10.7416 -15.3781 
upperneck 26.9846 -17.0551 13.5015 
head 12.9828 -8.03879 5.11222 
rclavicle -1.19271e-14 -4.13472e-14 
rhumerus -40.9606 -47.3057 -7.01753 
rradius 31.3201 
rwrist -63.3416 
rhand -2.35652 -5.28996 
rfingers 7.12502 
rthumb 23.3314 -33.8961 
lclavicle -1.19271e-14 -4.13472e-14 
lhumerus -39.0322 31.043 38.279 
lradius 34.3273 
lwrist -4.73286 
lhand -11.2889 32.3649 
lfingers 7.12502 
lthumb 14.7422 61.8207 
rfemur -14.3771 -8.80263 9.37264 
rtibia 33.4703 
rfoot -18.0527 -0.247973 
rtoes -38.1614 
lfemur -48.6818 19.9936 7.15145 
ltibia 85.4795 
lfoot -24.7199 -11.8724 
ltoes -21.7511 
2072
root 10.7653 15.4338 14.5533 -270.256 -72.9866 278.924 
lowerback 21.4989 0.408817 -1.29702 
upperback 8.30676 -0.202693 3.08049 
thorax -2.95254 -0.439554 4.10361 
lowerneck -8.37343 -10.6107 -15.2582 
upperneck 26.8836 -16.8837 13.4801 
head 12.8534 -7.96623 5.12554 
rclavicle 1.03368e-14 -3.65764e-14 
rhumerus -41.5007 -46.3059 -7.13044 
rradius 31.6165 
rwrist -64.0488 
rhand 0.456478 -5.39767 
rfingers 7.12502 
rthumb 26.0275 -33.6349 
lclavicle 1.03368e-14 -3.65764e-14 
lhumerus -38.845 30.9061 38.2504 
lradius 34.5831 
lwrist -4.57617 
lhand -10.9186 32.1654 
lfingers 7.12502 
lthumb 15.0989 61.5947 
rfemur -13.9516 -8.87681 9.39205 
rtibia 32.6563 
rfoot -17.6826 -0.658603 
rtoes -37.8261 
lfemur -49.1899 20.2478 6.87168 
ltibia 85.628 
lfoot -24.8741 -11.943 
ltoes -21.4538 
2073
root 10.7396 15.4365 14.6131 -271.945 -73.0225 280.672 
lowerback 21.3968 0.405962 -1.47009 
upperback 8.18931 -0.223167 2.9767 
thorax -3.02652 -0.439208 4.09491 
lowerneck -8.25268 -10.4926 -14.9285 
upperneck 26.8471 -16.734 13.3372 
head 12.7339 -7.89057 5.0507 
rclavicle -1.43125e-14 -4.6118e-14 
rhumerus -42.2781 -45.1916 -7.29937 
rradius 32.285 
rwrist -65.6882 
rhand -4.00775 -5.53661 
rfingers 7.12502 
rthumb 21.7465 -34.335 
lclavicle -1.43125e-14 -4.6118e-14 
lhumerus -38.4251 30.7289 38.2503 
lradius 34.7722 
lwrist -4.43267 
lhand -10.43 32.0287 
lfingers 7.12502 
lthumb 15.5695 61.422 
rfemur -13.1846 -8.79576 9.12072 
rtibia 31.7547 
rfoot -17.6281 -1.2294 
rtoes -37.9895 
lfemur -49.6348 20.0947 6.25348 
ltibia 85.7828 
lfoot -24.9977 -11.639 
ltoes -22.2287 
2074
root 10.7176 15.432 14.6664 -273.368 -72.3825 282.152 
lowerback 21.2615 0.390139 -1.00029 
upperback 8.13922 -0.140421 3.01851 
thorax -3.02063 -0.387884 3.84863 
lowerneck -8.49033 -10.492 -14.3298 
upperneck 26.9337 -16.7508 13.1048 
head 12.7331 -7.85024 4.8501 
rclavicle 2.3059e-14 -2.8625e-14 
rhumerus -43.3735 -45.0558 -6.68627 
rradius 32.1182 
rwrist -64.7888 
rhand -1.95987 -4.9017 
rfingers 7.12502 
rthumb 23.7119 -33.459 
lclavicle 2.3059e-14 -2.8625e-14 
lhumerus -37.7532 30.3577 38.4966 
lradius 34.971 
lwrist -4.4991 
lhand -10.6511 31.8319 
lfingers 7.12502 
lthumb 15.3566 61.2416 
rfemur -12.372 -8.47904 9.63416 
rtibia 30.7252 
rfoot -17.5952 -2.0192 
rtoes -38.14 
lfemur -50.1062 20.1843 6.45402 
ltibia 86.0058 
lfoot -25.2084 -11.3811 
ltoes -23.5933 
2075
root 10.6958 15.4156 14.7162 -273.907 -71.1807 282.804 
lowerback 20.9636 0.271481 -0.241678 
upperback 8.08254 -0.129579 3.35712 
thorax -2.93096 -0.375902 3.77095 
lowerneck -8.86274 -10.2975 -14.1324 
upperneck 27.1667 -16.4665 13.0038 
head 12.824 -7.69829 4.8196 
rclavicle 2.46493e-14 -4.77083e-15 
rhumerus -43.4439 -44.6838 -6.68548 
rradius 31.9737 
rwrist -65.1475 
rhand -4.21427 -5.11014 
rfingers 7.12502 
rthumb 21.5482 -33.9314 
lclavicle 2.46493e-14 -4.77083e-15 
lhumerus -37.8415 30.2518 38.5424 
lradius 35.4189 
lwrist -4.70311 
lhand -10.7057 31.6393 
lfingers 7.12502 
lthumb 15.304 61.053 
rfemur -11.6963 -8.17515 10.7985 
rtibia 29.6205 
rfoot -17.3868 -2.68372 
rtoes -37.639 
lfemur -50.6353 20.7382 7.332 
ltibia 86.3496 
lfoot -25.4701 -11.3432 
ltoes -24.293 
2076
root 10.6689 15.4105 14.7749 -274.033 -70.6036 283.168 
lowerback 20.5065 0.122705 -0.280347 
upperback 7.98485 -0.307959 3.65288 
thorax -2.78841 -0.464495 4.14408 
lowerneck -9.35159 -9.88651 -14.506 
upperneck 27.6609 -15.8363 13.0498 
head 13.0612 -7.43378 5.00831 
rclavicle 2.3059e-14 2.8625e-14 
rhumerus -42.7197 -44.248 -7.1917 
rradius 31.8594 
rwrist -65.605 
rhand -4.8602 -5.80337 
rfingers 7.12502 
rthumb 20.9277 -34.6944 
lclavicle 2.3059e-14 2.8625e-14 
lhumerus -38.6342 30.4009 38.2467 
lradius 36.0063 
lwrist -4.71833 
lhand -10.6052 31.6429 
lfingers 7.12502 
lthumb 15.4008 61.0493 
rfemur -11.2047 -7.70465 11.2907 
rtibia 28.5458 
rfoot -17.0143 -3.42957 
rtoes -37.6741 
lfemur -51.2132 21.3837 7.36492 
ltibia 86.7185 
lfoot -25.6119 -11.2779 
ltoes -24.1089 
